<svg id="Capa_1" data-name="Capa 1" xmlns="http://www.w3.org/2000/svg" xmlns:xlink="http://www.w3.org/1999/xlink" viewBox="0 0 1920 1080"><defs><style>.cls-1{fill:#f070a2;}.cls-2{fill:#ff7bac;stroke:#000;stroke-miterlimit:10;stroke-width:4px;}</style></defs><title>webClae</title><rect class="cls-1" x="0.5" y="0.5" width="1919" height="1079"/><path d="M1919,1V1079H1V1H1919m1-1H0V1080H1920V0Z"/><path class="cls-1" d="M525.09,106.59a1.5,1.5,0,0,0,0-3,1.5,1.5,0,0,0,0,3Z"/><image width="1875" height="833" transform="scale(1.02 1)" xlink:href="C:%5CUsers%5CRodrigo%5CDesktop%5C420.png"/><path class="cls-2" d="M760,75.37c0,8.42,0,12.62,0,21a8,8,0,0,1-1.07,4,4.74,4.74,0,0,1-4.34,2.54,5.9,5.9,0,0,1-5.29-3.19,10.31,10.31,0,0,1-1.49-5.35c0-11.1.29-22.22.6-33.33s.58-22.23.6-33.33a7.12,7.12,0,0,1,1.7-4.8,5.39,5.39,0,0,1,4.26-2,5.32,5.32,0,0,1,4.24,2,7.21,7.21,0,0,1,1.68,4.8q0,4.5-.38,12.14c-.31,5.92-.5,10-.55,12.14,7.66-9,14.82-18.47,22.11-27.78a5.66,5.66,0,0,1,4.52-2.5,5.57,5.57,0,0,1,4.24,2,7,7,0,0,1,1.81,4.85c0,2.06-3.38,7.45-10.14,16.09q-7.48,9.54-15.81,18.84c3.09,3.43,6.2,6.89,9.33,10.29a129,129,0,0,0,9.8,9.7,15.79,15.79,0,0,0,4.69,2.79A6.45,6.45,0,0,1,795,92.91a8.28,8.28,0,0,1-1.15,4.15,4.89,4.89,0,0,1-4.39,2.7q-6.11,0-15.81-9.35Q770.76,87.62,760,75.37Z"/><path class="cls-2" d="M814.13,74.07q0,2.85.15,9.15t.14,9.14a6.91,6.91,0,0,1-1.66,4.77,5.67,5.67,0,0,1-8.43,0,6.92,6.92,0,0,1-1.67-4.77q0-2.85-.14-9.14t-.15-9.15c0-3,.14-6.68.42-11.14s.43-8.18.43-11.15A6.91,6.91,0,0,1,804.88,47a5.7,5.7,0,0,1,8.44,0A7,7,0,0,1,815,51.78c0,3-.14,6.68-.43,11.15S814.13,71.11,814.13,74.07ZM810.5,37.44a6.22,6.22,0,0,1-4.72-2.15,7.39,7.39,0,0,1-2-5.24,7.39,7.39,0,0,1,2-5.25,6.25,6.25,0,0,1,9.43,0,7.46,7.46,0,0,1,2,5.25,7.45,7.45,0,0,1-2,5.24A6.17,6.17,0,0,1,810.5,37.44Z"/><path class="cls-2" d="M856.44,47.29q.55-17,1.32-23.54c.47-3.92,2.33-5.9,5.54-5.9a5,5,0,0,1,4.05,1.92,7.28,7.28,0,0,1,1.53,4.69q0,7.32-1,21.8t-1,21.8q0,17.86,1,23.92a9,9,0,0,1,.13,1.47A6.36,6.36,0,0,1,866.36,98a5.3,5.3,0,0,1-4,1.79q-3.15,0-4.68-3.3a15.81,15.81,0,0,1-6,2.67,32.41,32.41,0,0,1-6.44.63,20.24,20.24,0,0,1-15.85-7.15Q823,85.37,823,74.07q0-13.44,6.48-21.71a20.46,20.46,0,0,1,16.91-8.27,18.58,18.58,0,0,1,5.71.8A12,12,0,0,1,856.44,47.29ZM855.59,63c-.38-1.78-2.16-3.67-3.67-4.7a9.28,9.28,0,0,0-5.37-1.55q-6.3,0-9.46,4.27t-3.15,12.82a13.49,13.49,0,0,0,3.41,9.25A10.31,10.31,0,0,0,845.27,87a11,11,0,0,0,5-.9,22.9,22.9,0,0,0,3.92-3.19,19.43,19.43,0,0,0,1.41-1.55C855.53,79.72,857.3,71.19,855.59,63Z"/><path class="cls-2" d="M906.5,60.93a4.68,4.68,0,0,1-5.07-4.15,17.51,17.51,0,0,0-3.49-.35q-10.28,0-10.27,3.3c0,1.3,2.07,3,6.18,5.25,5.62,3,9.43,5.39,11.42,7.09q6.16,5.25,6.17,11.85c0,5.73-2.27,10.09-6.81,13a24.34,24.34,0,0,1-13.51,3.55,25.63,25.63,0,0,1-10.35-2.05q-6.39-2.8-6.39-8.25c0-3.33,1.68-5,5.07-5a17.37,17.37,0,0,1,5.66,1.45,17.16,17.16,0,0,0,5.71,1.45c5.77,0,8.68-1.38,8.69-4.09,0-1.69-2-3.58-6-5.65q-8.78-4.53-11.25-6.55-6-4.95-6-12,0-10.05,9.08-13.54,5.32-2.06,16.19-2.05c2.84,0,4.94.44,6.3,1.3,1.86,1.17,2.82,3.31,2.82,6.44Q910.64,60.93,906.5,60.93Z"/><path class="cls-2" d="M970,90.16q0,9.5-5.88,9.5a5.38,5.38,0,0,1-4.22-1.9,7.17,7.17,0,0,1-1.66-4.9V23.75A6.49,6.49,0,0,1,960,19a5.7,5.7,0,0,1,4.21-1.7,5.34,5.34,0,0,1,4.14,1.78A6.65,6.65,0,0,1,970,23.75Z"/><path class="cls-2" d="M1002.2,99.81q-10.19,0-16.66-5.7-7.15-6.3-7.16-17.74,0-12.65,5.67-21.39,6.29-9.69,17-9.69c4.94,0,9.06.93,12.31,2.8,4.29,2.45,6.44,6.29,6.44,11.49q0,5.49-5.24,9.74A64.79,64.79,0,0,1,1005,75l-14.36,7.45a13,13,0,0,0,4.94,3.89,16.07,16.07,0,0,0,6.65,1.3,16.62,16.62,0,0,0,9.67-2.74c2.36-1.64,4.25-2.45,5.67-2.45q4.43,0,4.43,5c0,3.8-2.37,6.91-7.11,9.3A27.79,27.79,0,0,1,1002.2,99.81Zm-1.15-42.43a8.8,8.8,0,0,0-6.77,3.1q-2.82,3.09-4.52,9.29c3.21-1.63,6.46-3.23,9.59-4.84a63.94,63.94,0,0,0,9.16-5.65A13.23,13.23,0,0,0,1001.05,57.38Z"/><path class="cls-2" d="M1049.11,100.66a21.54,21.54,0,0,1-15.72-6.25q-6.69-6.59-6.69-17.39c0-6.63,2-13.48,6-20.54,4.55-8,9.83-12.09,15.85-12.09a24.78,24.78,0,0,1,10.35,2.8c4.8,2.28,7.2,4.94,7.2,7.94a7.06,7.06,0,0,1-1.44,4.35,4.8,4.8,0,0,1-4,2.05q-1.83,0-4.41-2.33c-1.72-1.54-4.29-2.32-7.73-2.32-2.19,0-4.58,2.52-7.12,7.55-2.45,4.84-3.66,9.06-3.66,12.59a10.65,10.65,0,0,0,3.24,8.24,11.4,11.4,0,0,0,8.09,2.85q2.87,0,7-2.55c2.76-1.69,4.5-2.54,5.24-2.54a5,5,0,0,1,3.94,1.94,6.7,6.7,0,0,1,1.64,4.45c0,2.6-2.42,5.22-7.24,7.8C1055.38,99.51,1051.84,100.66,1049.11,100.66Z"/><path class="cls-2" d="M1104.42,57.28c-.6,0-1.3,0-2.11-.07s-1.51-.08-2.11-.08a23.78,23.78,0,0,0-4,.4q.76,20.19.77,26.39c0,.43,0,1.24,0,2.42s0,2.14,0,2.87q0,11.51-6.18,11.5a5.63,5.63,0,0,1-4-1.7,6.06,6.06,0,0,1-1.88-4.5c0-1.2,0-3,.13-5.4s.13-4.19.13-5.39q0-6.06-.77-25.89-2.64-.15-8-.82t-5.34-6.48a7.17,7.17,0,0,1,1.62-4.74,5.17,5.17,0,0,1,4.17-1.95c1.05,0,3.47.2,7.24.6,0-1.07-.09-2.84-.21-5.3-.1-2.12-.17-3.78-.17-5a6.47,6.47,0,0,1,1.75-4.64,5.56,5.56,0,0,1,4.22-1.85q6.3,0,6.3,12.44c0,1.64,0,2.46-.08,4.1a26.68,26.68,0,0,1,4.3-.45q4.9,0,6.69.75,3.4,1.4,3.41,6.09a7,7,0,0,1-1.66,4.75A5.36,5.36,0,0,1,1104.42,57.28Z"/><path class="cls-2" d="M1152.78,68.62c0,2.24,0,5.6,0,10.1s0,7.86,0,10.09c0,.7.05,1.74.15,3.13s.15,2.42.15,3.12a6.45,6.45,0,0,1-1.72,4.62,5.61,5.61,0,0,1-4.24,1.83q-3.54,0-5.16-3.75a28.35,28.35,0,0,1-11.29,2.35,16.81,16.81,0,0,1-10.18-3,14.11,14.11,0,0,1-5.54-10,167.17,167.17,0,0,1-1.66-22.21,98.53,98.53,0,0,1,1.28-14.77c.57-3.73,2.48-5.61,5.75-5.61a5.66,5.66,0,0,1,4.22,1.81,6.37,6.37,0,0,1,1.74,4.59,56.75,56.75,0,0,1-.62,6.85,58.63,58.63,0,0,0-.61,7.09q0,7,.4,12.23a58,58,0,0,0,1.22,8.66,11.68,11.68,0,0,0,2.06.85,7.13,7.13,0,0,0,1.94.29,38.44,38.44,0,0,0,10.4-1.6c0-2.56,0-5.48-.05-8.74,0-3.89-.08-6.7-.08-8.4a166.62,166.62,0,0,1,.81-17.69q.64-5.94,5.79-5.94a5.77,5.77,0,0,1,4.31,1.85,6,6,0,0,1,1.66,4.64C1153,63.71,1152.78,69.59,1152.78,68.62Z"/><path class="cls-2" d="M1196.54,61.48q-.39,7.65-5.92,7.64-5.37,0-5.37-6.49c-.09-2-.13-3-.22-5.05q-9.58,1.8-13.72,11.54l0,25.14A6.88,6.88,0,0,1,1169.7,99a5.41,5.41,0,0,1-4.22,1.88,4.84,4.84,0,0,1-4.09-2,7.52,7.52,0,0,1-1.37-4.6V61.53c0-1,0-2.58.09-4.62s.08-3.59.08-4.63a7.5,7.5,0,0,1,1.43-4.67,4.81,4.81,0,0,1,4.07-1.87c3.15,0,5,1.9,5.62,5.69a24.87,24.87,0,0,1,16.75-6.59q8.52,0,8.52,13.29C1196.58,59.83,1196.57,61,1196.54,61.48Z"/><path class="cls-2" d="M1224.23,99.81q-10.18,0-16.66-5.7-7.15-6.3-7.15-17.74,0-12.65,5.66-21.39,6.3-9.69,17-9.69,7.43,0,12.32,2.8c4.28,2.45,6.43,6.29,6.43,11.49q0,5.49-5.24,9.74A64.79,64.79,0,0,1,1227,75l-14.35,7.45a12.91,12.91,0,0,0,4.94,3.89,16,16,0,0,0,6.64,1.3,16.58,16.58,0,0,0,9.68-2.74c2.35-1.64,4.24-2.45,5.66-2.45q4.44,0,4.44,5c0,3.8-2.38,6.91-7.12,9.3A27.79,27.79,0,0,1,1224.23,99.81Zm-1.15-42.43a8.8,8.8,0,0,0-6.77,3.1q-2.82,3.09-4.52,9.29c3.21-1.63,6.46-3.23,9.59-4.84a63.38,63.38,0,0,0,9.16-5.65A13.21,13.21,0,0,0,1223.08,57.38Z"/></svg>